<?xml version="1.0" encoding="UTF-8"?>
<svg version="1.1" xmlns="http://www.w3.org/2000/svg" width="593" height="421">
<path d="M0 0 C0 0.99 0 1.98 0 3 C-3.93313451 4.79556141 -7.69136706 6.21429635 -11.875 7.3125 C-19.70717741 9.58597399 -26.00619924 14.60557931 -32 20 C-32.33 20.66 -32.66 21.32 -33 22 C-33.66 22 -34.32 22 -35 22 C-35.2784375 22.57878906 -35.556875 23.15757812 -35.84375 23.75390625 C-37.30776388 26.59785213 -39.03551686 29.22519811 -40.78125 31.90234375 C-43.53233672 36.63738725 -44.35914295 40.57494392 -44.5 46.0625 C-44.5515625 47.27035156 -44.603125 48.47820312 -44.65625 49.72265625 C-44.32808421 53.28685901 -44.32808421 53.28685901 -40.95898438 55.20483398 C-39.98251953 55.79723877 -39.00605469 56.38964355 -38 57 C-37.50998001 56.50109756 -37.01996002 56.00219513 -36.51509094 55.48817444 C-31.89113989 50.78401352 -27.25756753 46.0895704 -22.61300373 41.40575504 C-20.22561881 38.9975119 -17.84209016 36.58569788 -15.46704102 34.1652832 C-12.73525179 31.38164515 -9.98727227 28.61431223 -7.23828125 25.84765625 C-6.38913651 24.97786636 -5.53999176 24.10807648 -4.66511536 23.21192932 C-3.86466293 22.41117477 -3.06421051 21.61042023 -2.23950195 20.78540039 C-1.19026299 19.72283775 -1.19026299 19.72283775 -0.11982727 18.6388092 C2.3376331 16.73898051 3.91022227 16.18995097 7 16 C10.3125 17.8125 10.3125 17.8125 13 20 C13 20.66 13 21.32 13 22 C13.79664063 22.31904297 13.79664063 22.31904297 14.609375 22.64453125 C17.92137673 24.52241458 20.5097079 27.08010431 23.25 29.6875 C24.4093101 30.77694278 25.56946415 31.8654882 26.73046875 32.953125 C27.57037354 33.74106445 27.57037354 33.74106445 28.42724609 34.54492188 C30.98690526 36.91306354 33.64042899 39.16739615 36.31640625 41.40234375 C42.75533111 47.51259959 46.82674092 56.20303997 47.09375 65.13671875 C46.85361631 67.47468699 46.53239253 69.71229347 46 72 C43.03824877 71.38722388 41.61941217 70.74627478 39 69 C39 77.58 39 86.16 39 95 C49.26610336 86.57653058 56.29702065 77.022497 62 65 C62.99 65.33 63.98 65.66 65 66 C65.17588191 76.90467867 60.08799741 86.71861487 53.1875 94.9375 C46.6633235 101.67293555 39.03302694 106.14538937 30.75 110.375 C30.07646484 110.72119385 29.40292969 111.0673877 28.70898438 111.42407227 C28.05736328 111.74561279 27.40574219 112.06715332 26.734375 112.3984375 C25.87150879 112.82648682 25.87150879 112.82648682 24.99121094 113.26318359 C18.88729723 115.52184122 12.38786533 115.16094474 5.9765625 115.16796875 C4.38634781 115.17296135 4.38634781 115.17296135 2.76400757 115.17805481 C0.52659538 115.18310584 -1.7108243 115.1854637 -3.94824219 115.18530273 C-7.35624705 115.18748798 -10.76392738 115.20565993 -14.171875 115.22460938 C-16.3515614 115.22754399 -18.53124933 115.22952833 -20.7109375 115.23046875 C-21.72264008 115.23765427 -22.73434265 115.24483978 -23.77670288 115.25224304 C-35.72106333 115.21400517 -45.43001953 111.81709369 -54.37109375 103.7265625 C-62.96305208 94.61949875 -66.21233466 84.38618872 -66 72 C-64.91567033 63.37800001 -61.81158527 55.5185573 -58.46875 47.5703125 C-57.20049376 44.48737048 -56.10775375 41.41279367 -55.0625 38.25 C-49.01350591 21.60297155 -36.09763148 9.26278437 -20.921875 0.84765625 C-15.15215946 -1.78265525 -5.74116015 -2.87058008 0 0 Z M1.1875 46.1875 C-1.32243395 48.47938053 -3.83735311 50.70009131 -6.5 52.8125 C-7.325 53.534375 -8.15 54.25625 -9 55 C-9 55.66 -9 56.32 -9 57 C-9.56203125 57.24492187 -10.1240625 57.48984375 -10.703125 57.7421875 C-13.41865854 59.22926539 -15.46391438 61.04062782 -17.75 63.125 C-18.54921875 63.84945312 -19.3484375 64.57390625 -20.171875 65.3203125 C-20.77515625 65.87460938 -21.3784375 66.42890625 -22 67 C-20.21757131 71.00155241 -17.62705131 73.73642625 -14.65625 76.90234375 C-10.2899958 82.43224588 -10.38708612 88.82679646 -9.87695312 95.58203125 C-9.80541016 96.36191406 -9.73386719 97.14179688 -9.66015625 97.9453125 C-9.57713257 99.00516357 -9.57713257 99.00516357 -9.49243164 100.08642578 C-8.86919139 102.50831824 -7.94362216 103.45870792 -6 105 C-1.26421611 106.20130588 3.51711682 106.18317804 8.375 106.1875 C9.45007813 106.20586914 9.45007813 106.20586914 10.546875 106.22460938 C19.07125046 106.24768981 25.52515642 104.00438049 33 100 C33.4687844 95.07757185 33.84498821 90.15920481 34.14135742 85.22338867 C34.25424702 83.55065797 34.39112429 81.87935059 34.5534668 80.21069336 C35.68440269 70.82482485 35.68440269 70.82482485 32.77606201 62.16677856 C29.32168055 58.41997466 25.2772234 55.72532178 21 53 C19.4902872 51.86699457 17.98725002 50.72483447 16.5 49.5625 C15.88769531 49.11777344 15.27539062 48.67304688 14.64453125 48.21484375 C13.11014291 47.08136447 11.64500053 45.85577823 10.1875 44.625 C6.22744587 41.6832455 4.41781575 43.19929864 1.1875 46.1875 Z " fill="#FBFCFC" transform="translate(295,175)"/>
<path d="M0 0 C-1.55701931 4.67105792 -4.08447373 8.08705685 -7 12 C-3.94651413 12.29936136 -1.04498215 12.42908917 2 12 C3.70884005 10.37660195 5.37446717 8.70680947 7 7 C11.49217343 5.0363033 15.56893654 4.51394404 20.25 6.0625 C24.04385669 7.83802493 26.65864298 9.41479706 29 13 C29.40561483 17.03507742 29.28996525 20.95981747 29 25 C29.57234375 24.84015625 30.1446875 24.6803125 30.734375 24.515625 C37.29943373 23.02150819 44.16631856 23.48263325 50 27 C53.77705229 30.47324591 56.62810906 33.79929931 57.23828125 39.05078125 C57.26277344 39.79714844 57.28726563 40.54351562 57.3125 41.3125 C57.36857422 42.42044922 57.36857422 42.42044922 57.42578125 43.55078125 C56.82762966 46.9915248 55.03696193 49.21575026 53 52 C53.64066406 52.92039063 54.28132812 53.84078125 54.94140625 54.7890625 C75.03857227 84.0326409 83.05614712 116.82333024 77 152 C73.82349753 167.19528828 68.21429605 180.85328787 60 194 C59.26523437 195.24716797 59.26523437 195.24716797 58.515625 196.51953125 C57.40522081 198.38435712 56.21189194 200.19947483 55 202 C54.34 202 53.68 202 53 202 C52.73445312 202.58265625 52.46890625 203.1653125 52.1953125 203.765625 C50.0978861 207.68630442 46.99394813 210.74311032 44 214 C43.44699219 214.63035156 42.89398438 215.26070312 42.32421875 215.91015625 C28.09728286 231.27272339 7.08743324 241.91450943 -13 247 C-14.16789063 247.31839844 -15.33578125 247.63679687 -16.5390625 247.96484375 C-36.02468024 252.49201618 -57.86390568 251.71359833 -77 246 C-78.22203125 245.63777344 -79.4440625 245.27554688 -80.703125 244.90234375 C-97.91142688 239.21125736 -113.49024103 230.06952941 -127 218 C-127 217.34 -127 216.68 -127 216 C-127.99 215.67 -128.98 215.34 -130 215 C-130 214.34 -130 213.68 -130 213 C-130.66 213 -131.32 213 -132 213 C-133.8140744 210.91215981 -135.51151792 208.81993244 -137.1875 206.625 C-137.68290283 205.98014648 -138.17830566 205.33529297 -138.6887207 204.67089844 C-139.68138964 203.37278047 -140.67061949 202.07202482 -141.65625 200.76855469 C-142.75343883 199.32450748 -143.87351279 197.89787254 -145 196.4765625 C-153.11864382 185.76446302 -157.72610289 172.79055509 -161.4375 160 C-161.68443604 159.15268311 -161.93137207 158.30536621 -162.18579102 157.43237305 C-166.85423227 140.4367189 -166.80873937 120.16343309 -163 103 C-162.81695312 102.0615625 -162.63390625 101.123125 -162.4453125 100.15625 C-158.70673911 82.98650556 -150.31654278 67.07078763 -140 53 C-140.65097656 52.3090625 -141.30195313 51.618125 -141.97265625 50.90625 C-144.38361877 47.45007251 -144.51050661 45.66624414 -144.4375 41.5 C-144.43621094 40.3965625 -144.43492187 39.293125 -144.43359375 38.15625 C-143.95556466 34.67654276 -143.08280107 32.80320521 -141 30 C-135.31764117 25.73823088 -131.26038699 24.85316524 -124.3125 24.9375 C-123.61060547 24.94201172 -122.90871094 24.94652344 -122.18554688 24.95117188 C-120.45699462 24.96293073 -118.72848635 24.98086546 -117 25 C-117.04640625 24.43152344 -117.0928125 23.86304687 -117.140625 23.27734375 C-117.42417158 17.21147217 -116.56032663 13.9448981 -113 9 C-109.76162621 5.64995815 -106.59562738 5.15318758 -102 5 C-97.23023014 5.95026363 -94.16651251 7.57396559 -91.0625 11.3125 C-89.72798042 12.95370054 -89.72798042 12.95370054 -88 14 C-84.78678414 13.92059598 -82.00266034 13.10764804 -79 12 C-79 11.34 -79 10.68 -79 10 C-80.32 9.34 -81.64 8.68 -83 8 C-83 7.34 -83 6.68 -83 6 C-83.66 6 -84.32 6 -85 6 C-85.495 4.02 -85.495 4.02 -86 2 C-82.56018182 2.5708319 -81.26851447 3.60588327 -79 6.1875 C-76.58183741 8.35764592 -75.55781451 9.00318751 -72.265625 8.984375 C-69.14934096 8.41924577 -66.08357219 7.72118945 -63 7 C-47.74466383 4.79468315 -31.26163796 5.20077453 -16.2109375 8.63671875 C-13.64003174 9.27003488 -13.64003174 9.27003488 -10 9 C-7.99254161 7.11882425 -6.62504826 5.2272869 -5.19140625 2.8828125 C-3.68702756 0.50540093 -2.81099302 0 0 0 Z M-112 12 C-114.59146542 16.12278589 -114.63465046 21.24945465 -114 26 C-113.34 26.66 -112.68 27.32 -112 28 C-107.71 25.36 -103.42 22.72 -99 20 C-102.08669204 16.91330796 -102.91927658 16.55144911 -107 16 C-107 15.67 -107 15.34 -107 15 C-104.69 14.34 -102.38 13.68 -100 13 C-100 12.34 -100 11.68 -100 11 C-99.01 10.67 -98.02 10.34 -97 10 C-102.95243912 6.47262867 -106.76325248 7.69422982 -112 12 Z M6 12 C4.61131484 14.10039331 4.61131484 14.10039331 4 16 C6.84163138 17.09293514 7.93116853 17.02394138 10.875 16 C14.44546935 14.85744981 16.42639786 14.944163 20 16 C20.99 17.485 20.99 17.485 22 19 C21.443125 18.649375 20.88625 18.29875 20.3125 17.9375 C17.46113217 16.78154007 15.91482778 17.19032562 13 18 C14.21163848 21.63491543 15.10771062 21.95246215 18.375 23.75 C19.56222656 24.42289063 19.56222656 24.42289063 20.7734375 25.109375 C23.11018025 26.32213005 23.11018025 26.32213005 26 25 C26.79707569 18.37577643 26.79707569 18.37577643 24.9453125 12.19140625 C21.75232566 9.28319932 18.17082349 8.08721197 13.9609375 7.796875 C10.5267776 8.15260471 8.53032071 9.77090795 6 12 Z M-96 11 C-96 11.66 -96 12.32 -96 13 C-95.34 12.67 -94.68 12.34 -94 12 C-94.66 11.67 -95.32 11.34 -96 11 Z M-119 39 C-119.90492188 39.7528125 -120.80984375 40.505625 -121.7421875 41.28125 C-127.59049094 46.32963352 -132.4032696 51.80356887 -137 58 C-137.58394531 58.75667969 -138.16789062 59.51335937 -138.76953125 60.29296875 C-156.44722642 84.11595751 -163.15599424 114.4820664 -159.67480469 143.73242188 C-158.81059441 149.2541158 -157.51647567 154.62442397 -156 160 C-155.81808105 160.66676758 -155.63616211 161.33353516 -155.44873047 162.02050781 C-150.10938866 181.13525606 -139.49705607 196.66246791 -126 211 C-125.46117187 211.60328125 -124.92234375 212.2065625 -124.3671875 212.828125 C-106.87825261 231.63532131 -77.70064614 244.05919223 -52.34912109 245.10986328 C-18.88209489 245.81262949 12.0824361 237.66445624 37 214 C37 213.34 37 212.68 37 212 C37.99 211.67 38.98 211.34 40 211 C40 210.34 40 209.68 40 209 C40.84498047 208.67902344 40.84498047 208.67902344 41.70703125 208.3515625 C55.34565514 200.31244177 65.81259843 175.1933145 69.62109375 160.62402344 C77.36385374 128.14744681 74.50271565 96.0156643 56.89013672 67.18310547 C54.68829814 63.72141717 52.36679823 60.35018623 50 57 C49.34 56.01 48.68 55.02 48 54 C47.34 54 46.68 54 46 54 C45.7525 53.443125 45.505 52.88625 45.25 52.3125 C35.8708456 34.96106436 11.07115288 22.00407213 -6.97119141 16.38623047 C-11.60806037 15.0583641 -16.28099663 13.99347439 -21 13 C-22.06734375 12.773125 -23.1346875 12.54625 -24.234375 12.3125 C-58.29027184 6.08908738 -92.84554721 16.96051445 -119 39 Z M-98 12 C-98.99 12.99 -99.98 13.98 -101 15 C-99.68 15.99 -98.36 16.98 -97 18 C-95.68 17.34 -94.36 16.68 -93 16 C-93.99 15.67 -94.98 15.34 -96 15 C-96.66 14.01 -97.32 13.02 -98 12 Z M-94 13 C-93 15 -93 15 -93 15 Z M27 28 C30.93459297 32.3480216 30.93459297 32.3480216 36 35 C37.33384414 34.98066893 38.66743782 34.93657866 40 34.875 C42.93557838 34.82570857 43.86451339 34.9220952 46.5 36.4375 C48.71352426 40.21893728 48.32917236 43.7207593 48 48 C49.32 48.33 50.64 48.66 52 49 C54.69498416 44.95752375 54.66560133 41.7484973 54 37 C51.96550334 33.07632788 49.81650072 30.2660473 46 28 C40.03577441 26.14018772 32.9993098 26.40018405 27 28 Z M-139.8125 33.8125 C-141.5125802 36.94422668 -141.87737159 39.44377611 -142 43 C-140.90011062 46.36897952 -140.90011062 46.36897952 -139 49 C-138.01 49.33 -137.02 49.66 -136 50 C-135.52949219 49.45730469 -135.05898437 48.91460937 -134.57421875 48.35546875 C-133.95160156 47.64003906 -133.32898438 46.92460937 -132.6875 46.1875 C-132.07261719 45.47980469 -131.45773438 44.77210938 -130.82421875 44.04296875 C-129 42 -129 42 -127.26953125 40.36328125 C-125.77283467 39.06653596 -125.77283467 39.06653596 -126 37 C-128.41585574 37.03093173 -128.41585574 37.03093173 -131 38 C-132.85916824 40.96707046 -132.85916824 40.96707046 -134 44 C-134.66 43.67 -135.32 43.34 -136 43 C-135.505 41.88625 -135.01 40.7725 -134.5 39.625 C-132.8725494 36.34584251 -132.8725494 36.34584251 -133 34 C-132.28714844 34.21398437 -131.57429688 34.42796875 -130.83984375 34.6484375 C-125.16903041 36.23381846 -125.16903041 36.23381846 -119.7109375 34.796875 C-117.99303911 33.28399329 -116.45866126 31.76234159 -115 30 C-117.91509293 27.08490707 -120.19140411 27.66479016 -124.25 27.625 C-126.20679688 27.58246094 -126.20679688 27.58246094 -128.203125 27.5390625 C-133.28413571 28.15589302 -136.24450617 30.24450617 -139.8125 33.8125 Z M38 37 C38.33 37.66 38.66 38.32 39 39 C39.66 39 40.32 39 41 39 C41.33 39.99 41.66 40.98 42 42 C42.66 41.67 43.32 41.34 44 41 C43.67 39.68 43.34 38.36 43 37 C41.35 37 39.7 37 38 37 Z M45 39 C44.67 40.65 44.34 42.3 44 44 C44.66 44 45.32 44 46 44 C46 42.35 46 40.7 46 39 C45.67 39 45.34 39 45 39 Z " fill="#FBFCFB" transform="translate(338,93)"/>
<path d="M0 0 C0 0.66 0 1.32 0 2 C0.84498047 2.35964844 0.84498047 2.35964844 1.70703125 2.7265625 C19.97716329 12.87317757 30.59928056 37.70380824 36.15234375 56.74609375 C43.17459573 83.70248039 38.82263546 112.90424534 25 137 C8.98601477 162.89667132 -14.13849202 180.09061728 -43.76611328 187.31787109 C-59.75710178 190.69087592 -76.1411907 190.90286752 -92 187 C-92.68707031 186.83612793 -93.37414062 186.67225586 -94.08203125 186.50341797 C-120.70753591 179.89158734 -143.69575112 162.27100323 -158 139 C-164.93412214 126.87117261 -169.72626411 114.63482863 -172.2890625 100.87109375 C-172.76472602 97.89099592 -172.76472602 97.89099592 -175 96 C-174.34 96 -173.68 96 -173 96 C-173.09539062 95.030625 -173.19078125 94.06125 -173.2890625 93.0625 C-175.90488039 63.1070443 -166.20020577 36.17236211 -147.69921875 12.80078125 C-147.13847656 12.20652344 -146.57773438 11.61226562 -146 11 C-145.34 11 -144.68 11 -144 11 C-143.74734375 10.41605469 -143.4946875 9.83210938 -143.234375 9.23046875 C-137.12446729 -1.80990247 -120.09872011 -10.13182162 -109 -15 C-108.22269531 -15.34546875 -107.44539063 -15.6909375 -106.64453125 -16.046875 C-71.06501387 -30.38900604 -30.0405887 -23.25722996 0 0 Z M-130 3 C-130 3.66 -130 4.32 -130 5 C-130.53367188 5.21398437 -131.06734375 5.42796875 -131.6171875 5.6484375 C-149.59963495 15.84831753 -160.1377247 39.08677466 -165.47900391 58.08691406 C-172.20625125 82.789215 -168.11265974 111.27634635 -155.5625 133.5 C-152.37350099 138.62193715 -148.88560605 143.38788358 -145 148 C-144.34515625 148.80050781 -143.6903125 149.60101563 -143.015625 150.42578125 C-131.68423763 163.72155146 -116.7481213 173.45656145 -100.375 179.375 C-99.71918945 179.61379883 -99.06337891 179.85259766 -98.38769531 180.09863281 C-88.19950769 183.55471413 -77.82009879 184.36732629 -67.125 184.3125 C-65.41328613 184.30512817 -65.41328613 184.30512817 -63.66699219 184.29760742 C-55.37905152 184.18239867 -47.94575596 183.49694875 -40 181 C-38.88367188 180.67128906 -37.76734375 180.34257812 -36.6171875 180.00390625 C-23.1415857 175.6476994 -10.48577855 168.53867597 0 159 C0.96421875 158.12859375 1.9284375 157.2571875 2.921875 156.359375 C21.51801707 138.97866705 33.12503512 114.56419131 34 89 C34.03996094 88.071875 34.07992187 87.14375 34.12109375 86.1875 C34.63749424 63.34437238 28.01761581 42.64387349 15 24 C14.24833718 22.81355183 13.49812258 21.62618366 12.75 20.4375 C12.1725 19.633125 11.595 18.82875 11 18 C10.34 18 9.68 18 9 18 C8.60554688 17.12214844 8.60554688 17.12214844 8.203125 16.2265625 C-0.23701523 0.60682247 -23.07575152 -9.61473637 -39.04077148 -14.42773438 C-69.92783937 -23.15369402 -104.48240071 -16.7370819 -130 3 Z " fill="#FAFBFB" transform="translate(362,138)"/>
<path d="M0 0 C0.47050781 0.44472656 0.94101563 0.88945312 1.42578125 1.34765625 C2.35970703 2.19650391 2.35970703 2.19650391 3.3125 3.0625 C4.23482422 3.91521484 4.23482422 3.91521484 5.17578125 4.78515625 C5.77777344 5.18605469 6.37976563 5.58695313 7 6 C7.99 5.67 8.98 5.34 10 5 C10.34224609 5.89138672 10.34224609 5.89138672 10.69140625 6.80078125 C12.35918232 9.60364073 14.11968957 10.57791372 16.9375 12.1875 C18.25041016 12.95126953 18.25041016 12.95126953 19.58984375 13.73046875 C22.03559742 15.10205451 22.03559742 15.10205451 25 16 C22.03 21.28 19.06 26.56 16 32 C15.34 32 14.68 32 14 32 C14 33.32 14 34.64 14 36 C16.66439289 38.04153009 16.66439289 38.04153009 20 39.75 C21.11375 40.36359375 22.2275 40.9771875 23.375 41.609375 C24.24125 42.06828125 25.1075 42.5271875 26 43 C26.99 42.01 27.98 41.02 29 40 C29 41.98 29 43.96 29 46 C27.68 45.67 26.36 45.34 25 45 C24.67 45.99 24.34 46.98 24 48 C20.55555556 51 20.55555556 51 18 51 C18.33 51.99 18.66 52.98 19 54 C17.35 53.67 15.7 53.34 14 53 C14 52.34 14 51.68 14 51 C13.21625 50.690625 12.4325 50.38125 11.625 50.0625 C9 49 9 49 7 48 C7 47.34 7 46.68 7 46 C5.35 45.34 3.7 44.68 2 44 C2 43.34 2 42.68 2 42 C1.2265625 42.2475 1.2265625 42.2475 0.4375 42.5 C-2.73363876 43.15049 -5.77218334 43.0620734 -9 43 C-9.33 43.66 -9.66 44.32 -10 45 C-10.66 44.34 -11.32 43.68 -12 43 C-10.98679688 42.74605469 -9.97359375 42.49210937 -8.9296875 42.23046875 C-7.57803342 41.88316874 -6.22647599 41.53549241 -4.875 41.1875 C-4.20984375 41.02185547 -3.5446875 40.85621094 -2.859375 40.68554688 C1.39943451 39.57909146 5.10840666 38.11552348 9 36 C7.79751593 33.49482484 6.4881764 31.14145719 5.0625 28.75 C-0.04648242 19.65677383 -0.95152825 11.28812875 -1 1 C-0.67 0.67 -0.34 0.34 0 0 Z " fill="#F7F7F7" transform="translate(249,226)"/>
<path d="M0 0 C2.4375 0.8125 2.4375 0.8125 5 2 C5.33 2.99 5.66 3.98 6 5 C7.31601974 5.70022444 8.6520701 6.36336258 10 7 C11.69165039 8.49633789 11.69165039 8.49633789 13.34765625 10.22265625 C13.95287109 10.84333984 14.55808594 11.46402344 15.18164062 12.10351562 C15.80232422 12.74998047 16.42300781 13.39644531 17.0625 14.0625 C18.29861949 15.34964609 19.53932158 16.63241119 20.78515625 17.91015625 C21.33051025 18.47871338 21.87586426 19.04727051 22.43774414 19.63305664 C24.06842496 21.2376508 24.06842496 21.2376508 27 22 C27.3403125 21.195625 27.3403125 21.195625 27.6875 20.375 C29.43382056 17.21499137 31.6402849 14.7323017 34 12 C37.66161578 13.22053859 38.16270474 14.36782304 40.1875 17.5625 C40.71730469 18.38878906 41.24710937 19.21507813 41.79296875 20.06640625 C42.19128906 20.70449219 42.58960938 21.34257813 43 22 C43.78375 21.175 44.5675 20.35 45.375 19.5 C48 17 48 17 50 17 C50.495 15.515 50.495 15.515 51 14 C51.66 14 52.32 14 53 14 C53.34224609 13.17242187 53.34224609 13.17242187 53.69140625 12.328125 C55.37902066 9.32568264 57.50959014 7.1886055 59.9375 4.75 C60.81277344 3.85796875 61.68804687 2.9659375 62.58984375 2.046875 C65 0 65 0 68 0 C69.03479213 2.41151557 70.0529372 4.82794469 71.0625 7.25 C71.35705078 7.93191406 71.65160156 8.61382812 71.95507812 9.31640625 C73.48321625 13.01989395 74.24129373 15.1840347 73 19 C72.34 19 71.68 19 71 19 C69.35 14.38 67.7 9.76 66 5 C61.12272529 8.48744144 61.12272529 8.48744144 59 12 C58.34 12 57.68 12 57 12 C56.65388672 12.82564453 56.65388672 12.82564453 56.30078125 13.66796875 C54.63352347 16.65701649 52.5632046 18.85131278 50.1875 21.3125 C49.33542969 22.21613281 48.48335938 23.11976562 47.60546875 24.05078125 C45 26 45 26 42.3515625 26.046875 C38.24201774 24.21737667 37.13560672 20.84409209 35 17 C32.69 19.97 30.38 22.94 28 26 C22.40339354 24.88067871 22.40339354 24.88067871 19.6875 21.875 C16.49391361 18.46334935 13.09939643 15.46192835 9.50390625 12.48046875 C9.00761719 11.99191406 8.51132812 11.50335938 8 11 C8 10.34 8 9.68 8 9 C7.071875 8.566875 7.071875 8.566875 6.125 8.125 C4 7 4 7 2 5 C0.68 10.28 -0.64 15.56 -2 21 C-2.99 21 -3.98 21 -5 21 C-4.04296522 13.61394333 -2.95870791 6.85882288 0 0 Z " fill="#F9FBFA" transform="translate(260,64)"/>
<path d="M0 0 C8.91 0 17.82 0 27 0 C27 9.9 27 19.8 27 30 C18.09 30 9.18 30 0 30 C0 20.1 0 10.2 0 0 Z M3 3 C3 6.3 3 9.6 3 13 C5.97 13 8.94 13 12 13 C12 9.7 12 6.4 12 3 C9.03 3 6.06 3 3 3 Z M15 3 C15 6.3 15 9.6 15 13 C18.3 13 21.6 13 25 13 C25 9.7 25 6.4 25 3 C21.7 3 18.4 3 15 3 Z M3 16 C3 19.63 3 23.26 3 27 C5.97 27 8.94 27 12 27 C12 23.37 12 19.74 12 16 C9.03 16 6.06 16 3 16 Z M15 16 C15 19.63 15 23.26 15 27 C18.3 27 21.6 27 25 27 C25 23.37 25 19.74 25 16 C21.7 16 18.4 16 15 16 Z " fill="#FBFCFC" transform="translate(290,238)"/>
<path d="M0 0 C0.78375 0.515625 1.5675 1.03125 2.375 1.5625 C3.24125 2.036875 4.1075 2.51125 5 3 C5.66 2.67 6.32 2.34 7 2 C7 3.32 7 4.64 7 6 C9.66439289 8.04153009 9.66439289 8.04153009 13 9.75 C14.11375 10.36359375 15.2275 10.9771875 16.375 11.609375 C17.24125 12.06828125 18.1075 12.5271875 19 13 C19.99 12.01 20.98 11.02 22 10 C22 11.98 22 13.96 22 16 C20.68 15.67 19.36 15.34 18 15 C17.67 15.99 17.34 16.98 17 18 C13.55555556 21 13.55555556 21 11 21 C11.33 21.99 11.66 22.98 12 24 C10.35 23.67 8.7 23.34 7 23 C7 22.34 7 21.68 7 21 C6.21625 20.690625 5.4325 20.38125 4.625 20.0625 C2 19 2 19 0 18 C0 17.34 0 16.68 0 16 C-1.65 15.34 -3.3 14.68 -5 14 C-5 13.34 -5 12.68 -5 12 C-5.515625 12.165 -6.03125 12.33 -6.5625 12.5 C-9.73363876 13.15049 -12.77218334 13.0620734 -16 13 C-16.33 13.66 -16.66 14.32 -17 15 C-17.66 14.34 -18.32 13.68 -19 13 C-17.98679688 12.74605469 -16.97359375 12.49210937 -15.9296875 12.23046875 C-14.57803342 11.88316874 -13.22647599 11.53549241 -11.875 11.1875 C-11.20984375 11.02185547 -10.5446875 10.85621094 -9.859375 10.68554688 C-5.60056549 9.57909146 -1.89159334 8.11552348 2 6 C1.34 4.02 0.68 2.04 0 0 Z " fill="#EBEBEB" transform="translate(256,256)"/>
<path d="M0 0 C3 1 3 1 4.60546875 4.0546875 C5.14407431 5.32340281 5.67099484 6.59712797 6.1875 7.875 C6.46013672 8.51308594 6.73277344 9.15117187 7.01367188 9.80859375 C8.2167376 12.69715757 9 14.8415827 9 18 C5.887486 18.96747771 4.51983845 19.25702664 1.54296875 17.78515625 C0.76566406 17.21667969 -0.01164062 16.64820313 -0.8125 16.0625 C-1.60269531 15.49660156 -2.39289063 14.93070313 -3.20703125 14.34765625 C-4.09455078 13.68056641 -4.09455078 13.68056641 -5 13 C-4.01 15.97 -3.02 18.94 -2 22 C-3.65 22.33 -5.3 22.66 -7 23 C-12.37129841 11.47835991 -12.37129841 11.47835991 -14 6 C-11.80078125 4.8203125 -11.80078125 4.8203125 -9 4 C-6.54296875 5.1171875 -6.54296875 5.1171875 -4.1875 6.875 C-3.00220703 7.73738281 -3.00220703 7.73738281 -1.79296875 8.6171875 C-1.20128906 9.07351562 -0.60960937 9.52984375 0 10 C-0.66 7.03 -1.32 4.06 -2 1 C-1.34 0.67 -0.68 0.34 0 0 Z " fill="#FAFBFB" transform="translate(268,138)"/>
<path d="M0 0 C0.60328125 0.34804688 1.2065625 0.69609375 1.828125 1.0546875 C2.983125 1.6321875 4.138125 2.2096875 5.328125 2.8046875 C6.153125 3.2171875 6.978125 3.6296875 7.828125 4.0546875 C4.60171971 7.28109279 0.6053091 6.60945473 -3.796875 6.8046875 C-4.67472656 6.86011719 -5.55257813 6.91554688 -6.45703125 6.97265625 C-13.50847966 7.31841821 -19.92869317 6.69654357 -26.171875 3.0546875 C-25.171875 0.0546875 -25.171875 0.0546875 -23.45703125 -1.1484375 C-15.05840013 -5.10420752 -8.06219902 -4.48992384 0 0 Z " fill="#F6F6F6" transform="translate(277.171875,282.9453125)"/>
<path d="M0 0 C4.81262968 2.00955629 6.88289982 5.35314453 9 10 C9.10229575 14.39871717 6.90205111 16.83412606 4 20 C0.98221063 21.50889469 -0.62322637 21.50026276 -4 21 C-7.98878441 18.2800428 -11.45107897 15.6467631 -13 11 C-7.25 6 -7.25 6 -5 6 C-5 5.34 -5 4.68 -5 4 C-3.37373596 2.61767557 -1.7074998 1.28062485 0 0 Z M0 7 C-1.67580052 7.97207035 -1.67580052 7.97207035 -3.1875 9.4375 C-4.115625 10.283125 -5.04375 11.12875 -6 12 C-5.34 13.32 -4.68 14.64 -4 16 C-0.39007621 15.34414811 -0.39007621 15.34414811 3 14 C3 12.02 3 10.04 3 8 C2.01 7.67 1.02 7.34 0 7 Z " fill="#F9FBFA" transform="translate(355,160)"/>
<path d="M0 0 C4.58478865 0.80434889 6.47047996 2.16488233 9.5625 5.625 C10.58523869 9.5795896 10.85473576 11.74829273 9.5625 15.625 C8.9025 15.625 8.2425 15.625 7.5625 15.625 C7.2325 16.615 6.9025 17.605 6.5625 18.625 C1.89929812 19.53935331 -1.26338619 20.10690551 -5.4375 17.625 C-7.8125 15.4375 -7.8125 15.4375 -9.4375 12.625 C-9.51518954 8.27438601 -8.86537296 6.21647145 -6.3125 2.6875 C-3.4375 0.625 -3.4375 0.625 0 0 Z M-1.4375 5.625 C-2.4275 6.285 -3.4175 6.945 -4.4375 7.625 C-4.16715366 10.06217258 -4.16715366 10.06217258 -3.4375 12.625 C-0.66761924 14.94043207 -0.66761924 14.94043207 2.1875 14.3125 C4.49751965 13.8508486 4.49751965 13.8508486 5.5625 12.625 C5.60313832 10.95882885 5.605221 9.29111905 5.5625 7.625 C2.21920531 6.43148688 2.21920531 6.43148688 -1.4375 5.625 Z " fill="#FAFCFB" transform="translate(218.4375,196.375)"/>
<path d="M0 0 C3.4696382 3.10052776 4.83387437 4.94787101 5.5625 9.5625 C4.89907135 13.61678618 4.05527096 15.26633651 1 18 C-2.24971594 19.03714339 -4.29899711 19.1502149 -7.625 18.4375 C-10.90079501 16.45478197 -12.2434139 14.38305471 -14 11 C-14.5625 7.9375 -14.5625 7.9375 -14 5 C-9.42875269 -0.41331918 -6.96474652 -1.77069827 0 0 Z M-7 4 C-7.66 4.66 -8.32 5.32 -9 6 C-8.78343634 8.81532759 -8.31127943 10.55531511 -6.6875 12.875 C-5.03898839 14.23730594 -5.03898839 14.23730594 -2.875 13.75 C-1.01914885 13.15045529 -1.01914885 13.15045529 0 12 C0.29978682 9.15202522 0.40071289 7.58103368 -1.25 5.1875 C-3.19917293 3.62566572 -3.19917293 3.62566572 -7 4 Z " fill="#FAFBFB" transform="translate(251,152)"/>
<path d="M0 0 C5.94 0 11.88 0 18 0 C18.33 1.65 18.66 3.3 19 5 C16.36 5 13.72 5 11 5 C11 7.31 11 9.62 11 12 C13.64 12 16.28 12 19 12 C19 13.65 19 15.3 19 17 C12.73 17 6.46 17 0 17 C0 15.35 0 13.7 0 12 C2.31 12 4.62 12 7 12 C7 9.69 7 7.38 7 5 C4.36 5 1.72 5 -1 5 C-0.67 3.35 -0.34 1.7 0 0 Z " fill="#F9FBFC" transform="translate(363,211)"/>
<path d="M0 0 C1.65 0.33 3.3 0.66 5 1 C4.855625 1.67546875 4.71125 2.3509375 4.5625 3.046875 C4.376875 3.93890625 4.19125 4.8309375 4 5.75 C3.814375 6.63171875 3.62875 7.5134375 3.4375 8.421875 C2.88846325 11.22143965 2.88846325 11.22143965 3 15 C4.32 15.33 5.64 15.66 7 16 C7.18175781 15.14535156 7.36351562 14.29070312 7.55078125 13.41015625 C7.80214844 12.30542969 8.05351562 11.20070312 8.3125 10.0625 C8.55613281 8.96035156 8.79976563 7.85820312 9.05078125 6.72265625 C9.36402344 5.82417969 9.67726563 4.92570313 10 4 C10.99 3.67 11.98 3.34 13 3 C13.66 3.33 14.32 3.66 15 4 C14.57993687 9.88088388 13.73290558 15.23936409 10 20 C6.53151836 21.32835467 4.78645063 21.23236041 1.25 20.1875 C-1 19 -1 19 -3 17 C-3.63660704 10.88857239 -1.94663439 5.7587934 0 0 Z " fill="#FAFCFC" transform="translate(311,136)"/>
<path d="M0 0 C1.65 0 3.3 0 5 0 C5 2.31 5 4.62 5 7 C7.31 7 9.62 7 12 7 C12 4.69 12 2.38 12 0 C13.65 0 15.3 0 17 0 C17.09706112 6.11485027 16.77040851 11.93303301 16 18 C14.68 18 13.36 18 12 18 C12 15.69 12 13.38 12 11 C9.69 11 7.38 11 5 11 C5 13.31 5 15.62 5 18 C3.35 18 1.7 18 0 18 C0 12.06 0 6.12 0 0 Z " fill="#F9FBFB" transform="translate(287,135)"/>
<path d="M0 0 C3.32368224 1.10789408 3.61563093 1.48436217 5.25 4.375 C5.78367187 5.28378906 5.78367187 5.28378906 6.328125 6.2109375 C7 8 7 8 6 11 C4.125 10.6875 4.125 10.6875 2 10 C1.34 9.01 0.68 8.02 0 7 C-0.66 7 -1.32 7 -2 7 C-1.34 8.98 -0.68 10.96 0 13 C-1.98 13.99 -1.98 13.99 -4 15 C-4.66 13.68 -5.32 12.36 -6 11 C-7.24546405 13.49092811 -6.7767578 14.41080733 -6 17 C-7.98 17.99 -7.98 17.99 -10 19 C-11.65 15.37 -13.3 11.74 -15 8 C-14.00097656 7.50628906 -13.00195312 7.01257813 -11.97265625 6.50390625 C-10.6692186 5.85687605 -9.36583602 5.20973489 -8.0625 4.5625 C-7.40314453 4.23701172 -6.74378906 3.91152344 -6.06445312 3.57617188 C-2.81709965 2.10888654 -2.81709965 2.10888654 0 0 Z " fill="#F8FAF9" transform="translate(368,178)"/>
<path d="M0 0 C2.4375 0.375 2.4375 0.375 5 1 C6.61588379 4.23176757 6.57451407 7.50615283 6 11 C4 14 4 14 1 16 C-2.86950302 16.64742657 -6.26924499 16.243585 -10 15 C-12.18360169 13.05902072 -12.94606353 11.65173232 -13.1875 8.734375 C-13.1875 6.48188551 -13.1297214 4.24850429 -13 2 C-11.35 2 -9.7 2 -8 2 C-8.04125 2.94875 -8.0825 3.8975 -8.125 4.875 C-8.34973818 8.10244856 -8.34973818 8.10244856 -6 10 C-2.41656024 10.16677282 -2.41656024 10.16677282 1 10 C0.67 6.7 0.34 3.4 0 0 Z " fill="#FAFBFA" transform="translate(221,217)"/>
<path d="M0 0 C1.32 0.33 2.64 0.66 4 1 C3.67 2.65 3.34 4.3 3 6 C6.96 7.98 10.92 9.96 15 12 C14.67 13.32 14.34 14.64 14 16 C13.34 16.33 12.68 16.66 12 17 C9.92803369 16.26821134 7.8891448 15.44100997 5.875 14.5625 C4.77929688 14.08941406 3.68359375 13.61632812 2.5546875 13.12890625 C1.71164063 12.75636719 0.86859375 12.38382813 0 12 C-0.33 12.99 -0.66 13.98 -1 15 C-2.65 14.67 -4.3 14.34 -6 14 C-4.50829734 9.0276578 -2.39542583 4.58154261 0 0 Z " fill="#F7F9F8" transform="translate(219,178)"/>
<path d="M0 0 C3.38891322 0.68886787 6.18011613 1.98716486 9.25 3.5625 C10.14203125 4.01753906 11.0340625 4.47257813 11.953125 4.94140625 C12.96632813 5.46541016 12.96632813 5.46541016 14 6 C13.67 7.32 13.34 8.64 13 10 C11.35 9.67 9.7 9.34 8 9 C7.52949219 9.7940625 7.05898438 10.588125 6.57421875 11.40625 C5.95160156 12.4271875 5.32898438 13.448125 4.6875 14.5 C4.07261719 15.5209375 3.45773437 16.541875 2.82421875 17.59375 C2.22222656 18.3878125 1.62023437 19.181875 1 20 C-2 20 -2 20 -4 19 C-2.31326082 14.50202887 -0.18326108 10.27113698 2 6 C1.01 5.34 0.02 4.68 -1 4 C-0.67 2.68 -0.34 1.36 0 0 Z " fill="#FAFBFB" transform="translate(331,143)"/>
<path d="M0 0 C0.99 0.66 1.98 1.32 3 2 C2.34 3.65 1.68 5.3 1 7 C5.95 10.96 5.95 10.96 11 15 C10.34 16.32 9.68 17.64 9 19 C6.15921909 17.7500564 3.96609026 16.17602101 1.5625 14.25 C-0.18659684 12.88588551 -0.18659684 12.88588551 -2 12 C-4.7970198 12.61750282 -4.7970198 12.61750282 -7 14 C-7.66 13.67 -8.32 13.34 -9 13 C-7.50923566 9.7173068 -5.61379679 7.06922559 -3.375 4.25 C-2.74335938 3.45078125 -2.11171875 2.6515625 -1.4609375 1.828125 C-0.97882813 1.22484375 -0.49671875 0.6215625 0 0 Z " fill="#F9FAFA" transform="translate(231,162)"/>
<path d="M0 0 C3 0 3 0 4.6875 1.375 C6 3 6 3 6 5 C6.57492188 5.24621094 7.14984375 5.49242188 7.7421875 5.74609375 C10.35639827 7.19793053 12.06336208 8.90287549 14.125 11.0625 C16.77905 13.91571933 16.77905 13.91571933 20 16 C20.20496094 15.30132812 20.40992188 14.60265625 20.62109375 13.8828125 C20.89050781 12.97273438 21.15992188 12.06265625 21.4375 11.125 C21.70433594 10.22007813 21.97117187 9.31515625 22.24609375 8.3828125 C23 6 23 6 24 4 C24.99 4.33 25.98 4.66 27 5 C25.36041242 10.23272633 23.61047965 15.15196636 21 20 C16.72655357 19.52517262 14.86471775 17.00795363 12 14 C11.236875 13.443125 10.47375 12.88625 9.6875 12.3125 C8.8521875 11.6628125 8.8521875 11.6628125 8 11 C8 10.34 8 9.68 8 9 C7.443125 8.79375 6.88625 8.5875 6.3125 8.375 C3.07498698 6.44999226 1.31768859 3.96149098 -1 1 C-0.67 0.67 -0.34 0.34 0 0 Z " fill="#F9FAF9" transform="translate(240,75)"/>
<path d="M0 0 C0.66 0 1.32 0 2 0 C2.69458008 2.2644043 2.69458008 2.2644043 3 5 C1.76831055 6.94458008 1.76831055 6.94458008 -0.11328125 8.76953125 C-0.78423828 9.43017578 -1.45519531 10.09082031 -2.14648438 10.77148438 C-2.86126953 11.44501953 -3.57605469 12.11855469 -4.3125 12.8125 C-5.01568359 13.50537109 -5.71886719 14.19824219 -6.44335938 14.91210938 C-11.6916564 20 -11.6916564 20 -14 20 C-14 20.66 -14 21.32 -14 22 C-15.32 22.33 -16.64 22.66 -18 23 C-22 16.25 -22 16.25 -22 14 C-22.66 13.67 -23.32 13.34 -24 13 C-23.67 11.35 -23.34 9.7 -23 8 C-22.34 8 -21.68 8 -21 8 C-20.32880451 9.4562545 -19.66318193 10.91507867 -19 12.375 C-18.443125 13.59316406 -18.443125 13.59316406 -17.875 14.8359375 C-17 17 -17 17 -17 19 C-16.34 19 -15.68 19 -15 19 C-14.34 17.68 -13.68 16.36 -13 15 C-12.34 15 -11.68 15 -11 15 C-11 14.34 -11 13.68 -11 13 C-9.609375 11.66796875 -9.609375 11.66796875 -7.75 10.1875 C-4.75025191 7.69886517 -2.23845056 5.2233688 0 2 C0 1.34 0 0.68 0 0 Z " fill="#F8FAF9" transform="translate(347,70)"/>
<path d="M0 0 C0 1.32 0 2.64 0 4 C-1.60256108 4.50512244 -3.20711792 5.00391627 -4.8125 5.5 C-6.15248047 5.91765625 -6.15248047 5.91765625 -7.51953125 6.34375 C-10 7 -10 7 -13 7 C-12.67 9.31 -12.34 11.62 -12 14 C-13.32 14.33 -14.64 14.66 -16 15 C-16.53190541 13.56656 -17.05015258 12.12804633 -17.5625 10.6875 C-17.85253906 9.88699219 -18.14257812 9.08648437 -18.44140625 8.26171875 C-19 6 -19 6 -18 3 C-14.98046875 1.796875 -14.98046875 1.796875 -11.1875 0.75 C-9.94355469 0.39421875 -8.69960938 0.0384375 -7.41796875 -0.328125 C-4.34404528 -0.93237053 -2.8529694 -1.12106606 0 0 Z " fill="#F9FBFA" transform="translate(378,195)"/>
<path d="M0 0 C0.47050781 0.44472656 0.94101563 0.88945312 1.42578125 1.34765625 C2.04839844 1.91355469 2.67101562 2.47945312 3.3125 3.0625 C3.92738281 3.63097656 4.54226562 4.19945312 5.17578125 4.78515625 C5.77777344 5.18605469 6.37976563 5.58695313 7 6 C7.99 5.67 8.98 5.34 10 5 C10.66 6.65 11.32 8.3 12 10 C11.2575 10.061875 10.515 10.12375 9.75 10.1875 C6.86928466 10.83878351 6.86928466 10.83878351 4.625 13 C2.34594969 17.2074775 3.08418064 20.43085775 4 25 C-0.37292846 20.62707154 -0.39448364 14.54249965 -0.6875 8.6875 C-0.73455078 7.95982422 -0.78160156 7.23214844 -0.83007812 6.48242188 C-0.93385226 4.65701777 -0.97258835 2.82814601 -1 1 C-0.67 0.67 -0.34 0.34 0 0 Z " fill="#E7E7E7" transform="translate(249,226)"/>
<path d="M0 0 C3.62885578 1.45154231 5.15432673 3.2400638 7.25 6.5 C7.77078125 7.2940625 8.2915625 8.088125 8.828125 8.90625 C10 11 10 11 10 13 C10.66 13 11.32 13 12 13 C11.67 13.99 11.34 14.98 11 16 C7.69855718 14.89951906 7.29303304 14.38212433 5.4375 11.625 C5.02371094 11.01914063 4.60992187 10.41328125 4.18359375 9.7890625 C3.79300781 9.19867188 3.40242188 8.60828125 3 8 C2.34 7.01 1.68 6.02 1 5 C-1.31 8.96 -3.62 12.92 -6 17 C-6.99 16.67 -7.98 16.34 -9 16 C-7.87987208 13.70583427 -6.75417159 11.41470906 -5.625 9.125 C-5.30789063 8.47402344 -4.99078125 7.82304688 -4.6640625 7.15234375 C-3.31109879 4.41822959 -2.17227482 2.17227482 0 0 Z " fill="#F9FBFA" transform="translate(293,62)"/>
<path d="M0 0 C6.5508985 0.45759953 12.6753842 1.2100144 19 3 C18.67 4.65 18.34 6.3 18 8 C8.595 6.515 8.595 6.515 -1 5 C-0.67 3.35 -0.34 1.7 0 0 Z " fill="#FAFCFB" transform="translate(362,231)"/>
<path d="M0 0 C2.5 0.25 2.5 0.25 4.5 2.25 C4.6875 5.8125 4.6875 5.8125 4.5 9.25 C3.5 10.25 3.5 10.25 0.0625 10.5 C-1.113125 10.4175 -2.28875 10.335 -3.5 10.25 C-5.5 7.25 -5.5 7.25 -5.25 4.6875 C-4.24098289 1.40819438 -3.4742892 0.34742892 0 0 Z " fill="#FCFCFC" transform="translate(329.5,48.75)"/>
<path d="M0 0 C1.9375 1.6875 1.9375 1.6875 3 4 C2.33228817 6.39263407 1.77902615 8.22097385 0 10 C-2.33944736 9.71269945 -4.6739143 9.38063221 -7 9 C-8.33157895 3.55263158 -8.33157895 3.55263158 -6.875 1.125 C-4.34227807 -0.39463316 -2.9039635 -0.50819361 0 0 Z " fill="#FAFBFB" transform="translate(212,104)"/>
<path d="M0 0 C2.33944736 0.28730055 4.6739143 0.61936779 7 1 C7.92054342 4.01268757 8.27861489 5.42729162 6.875 8.3125 C5 10 5 10 2.5 10.5 C0 10 0 10 -1.9375 8.3125 C-3 6 -3 6 -2.25 3.3125 C-1 1 -1 1 0 0 Z " fill="#FCFCFC" transform="translate(256,51)"/>
<path d="M0 0 C0.66 0.33 1.32 0.66 2 1 C2.125 3.875 2.125 3.875 2 7 C0 9 0 9 -3 9.3125 C-3.99 9.209375 -4.98 9.10625 -6 9 C-8 6 -8 6 -7.75 2.875 C-7.37875 1.451875 -7.37875 1.451875 -7 0 C-4.30919898 -1.34540051 -2.86443593 -0.71610898 0 0 Z " fill="#FBFBFB" transform="translate(297,48)"/>
<path d="M0 0 C2.61580479 0.3269756 4.64078137 0.82039068 7 2 C7.125 4.875 7.125 4.875 7 8 C5 10 5 10 2 10.3125 C1.01 10.209375 0.02 10.10625 -1 10 C-3 7 -3 7 -2.75 4.4375 C-2 2 -2 2 0 0 Z " fill="#FAFCFB" transform="translate(377,104)"/>
<path d="M0 0 C0.99 0.103125 1.98 0.20625 3 0.3125 C5 3.3125 5 3.3125 4.8125 5.875 C4 8.3125 4 8.3125 1 10.3125 C-1.6875 9.9375 -1.6875 9.9375 -4 9.3125 C-4.625 5.9375 -4.625 5.9375 -5 2.3125 C-3 0.3125 -3 0.3125 0 0 Z " fill="#FCFCFC" transform="translate(354,61.6875)"/>
<path d="M0 0 C1.175625 0.0825 2.35125 0.165 3.5625 0.25 C5.5625 3.25 5.5625 3.25 5.25 5.875 C4.5625 8.25 4.5625 8.25 3.5625 9.25 C0.625 9.4375 0.625 9.4375 -2.4375 9.25 C-4.4375 7.25 -4.4375 7.25 -4.625 4.1875 C-4.35637999 -0.02088008 -4.30150996 0.31283709 0 0 Z " fill="#FDFDFD" transform="translate(235.4375,63.75)"/>
<path d="M0 0 C2.31 0.33 4.62 0.66 7 1 C7.33 1.99 7.66 2.98 8 4 C7.071875 4.20625 6.14375 4.4125 5.1875 4.625 C1.73995905 5.74446192 1.73995905 5.74446192 0.125 9.125 C-0.24625 10.07375 -0.6175 11.0225 -1 12 C-1.99 11.34 -2.98 10.68 -4 10 C-3.25130208 8.27473958 -2.50260417 6.54947917 -1.75390625 4.82421875 C-1.10038058 3.24288979 -0.54108198 1.62324594 0 0 Z " fill="#F1F5F6" transform="translate(205,126)"/>
<path d="M0 0 C-1.1858237 3.37503669 -2.27573689 5.64722731 -5 8 C-5 7.34 -5 6.68 -5 6 C-5.66 5.67 -6.32 5.34 -7 5 C-2.25 0 -2.25 0 0 0 Z " fill="#F3F6F5" transform="translate(338,93)"/>
<path d="M0 0 C0.33 0.99 0.66 1.98 1 3 C-0.175625 3.928125 -0.175625 3.928125 -1.375 4.875 C-3.96837647 6.89858661 -3.96837647 6.89858661 -6 9 C-6 6 -6 6 -4.6875 4.39453125 C-4.130625 3.87246094 -3.57375 3.35039062 -3 2.8125 C-2.443125 2.28269531 -1.88625 1.75289063 -1.3125 1.20703125 C-0.6628125 0.60955078 -0.6628125 0.60955078 0 0 Z " fill="#F1F2F1" transform="translate(369,289)"/>
<path d="M0 0 C1.98 0.495 1.98 0.495 4 1 C4 1.66 4 2.32 4 3 C2.35 3 0.7 3 -1 3 C-0.67 2.01 -0.34 1.02 0 0 Z " fill="#F4F8F8" transform="translate(282,314)"/>
<path d="M0 0 C0.66 0.33 1.32 0.66 2 1 C2 2.32 2 3.64 2 5 C1.01 5 0.02 5 -1 5 C-0.67 3.35 -0.34 1.7 0 0 Z " fill="#EEF1F0" transform="translate(389,228)"/>
<path d="M0 0 C0.99 0 1.98 0 3 0 C2.67 1.32 2.34 2.64 2 4 C1.01 4 0.02 4 -1 4 C-0.67 2.68 -0.34 1.36 0 0 Z " fill="#ECEFEE" transform="translate(203,190)"/>
<path d="M0 0 C0.99 0 1.98 0 3 0 C2.67 1.32 2.34 2.64 2 4 C1.01 4 0.02 4 -1 4 C-0.67 2.68 -0.34 1.36 0 0 Z " fill="#F0F2F2" transform="translate(206,183)"/>
<path d="M0 0 C2.475 0.495 2.475 0.495 5 1 C4.67 1.66 4.34 2.32 4 3 C2.68 3 1.36 3 0 3 C0 2.01 0 1.02 0 0 Z " fill="#F3F5F3" transform="translate(276,126)"/>
<path d="M0 0 C1.32 0 2.64 0 4 0 C4 0.99 4 1.98 4 3 C2.68 3 1.36 3 0 3 C0 2.01 0 1.02 0 0 Z " fill="#EFF0F3" transform="translate(289,315)"/>
<path d="M0 0 C1.32 0 2.64 0 4 0 C4 0.99 4 1.98 4 3 C2.68 3 1.36 3 0 3 C0 2.01 0 1.02 0 0 Z " fill="#EAEEEE" transform="translate(305,314)"/>
<path d="M0 0 C1.32 0 2.64 0 4 0 C4 0.99 4 1.98 4 3 C2.68 3 1.36 3 0 3 C0 2.01 0 1.02 0 0 Z " fill="#EDEEEE" transform="translate(297,315)"/>
<path d="M0 0 C1.98 0.99 1.98 0.99 4 2 C4 2.66 4 3.32 4 4 C2.68 3.67 1.36 3.34 0 3 C0 2.01 0 1.02 0 0 Z " fill="#E1E3E2" transform="translate(220,280)"/>
<path d="M0 0 C0.66 0.33 1.32 0.66 2 1 C1.67 2.32 1.34 3.64 1 5 C0.01 4.67 -0.98 4.34 -2 4 C-1.34 2.68 -0.68 1.36 0 0 Z " fill="#F0F3F2" transform="translate(210,175)"/>
<path d="M0 0 C0.99 0 1.98 0 3 0 C2.34 1.32 1.68 2.64 1 4 C0.34 4 -0.32 4 -1 4 C-0.67 2.68 -0.34 1.36 0 0 Z " fill="#E8EBEB" transform="translate(223,156)"/>
<path d="M0 0 C0.99 0.33 1.98 0.66 3 1 C2.01 2.485 2.01 2.485 1 4 C0.01 3.67 -0.98 3.34 -2 3 C-1.34 2.01 -0.68 1.02 0 0 Z " fill="#F0F2F1" transform="translate(235,145)"/>
<path d="M0 0 C0.66 0.33 1.32 0.66 2 1 C2 1.66 2 2.32 2 3 C0.68 3.33 -0.64 3.66 -2 4 C-2 3.01 -2 2.02 -2 1 C-1.34 0.67 -0.68 0.34 0 0 Z " fill="#F0F3F2" transform="translate(242,140)"/>
<path d="M0 0 C-0.33 0.99 -0.66 1.98 -1 3 C-2.32 3 -3.64 3 -5 3 C-5 2.34 -5 1.68 -5 1 C-3 0 -3 0 0 0 Z " fill="#F9FAFA" transform="translate(258,133)"/>
<path d="M0 0 C1.32 0.33 2.64 0.66 4 1 C4 1.99 4 2.98 4 4 C2.68 3.67 1.36 3.34 0 3 C0 2.01 0 1.02 0 0 Z " fill="#EBEFF3" transform="translate(331,132)"/>
<path d="M0 0 C1.32 0 2.64 0 4 0 C4 0.99 4 1.98 4 3 C2.35 2.67 0.7 2.34 -1 2 C-0.67 1.34 -0.34 0.68 0 0 Z " fill="#F0F5F5" transform="translate(324,130)"/>
<path d="M0 0 C1.32 0.33 2.64 0.66 4 1 C3.67 1.99 3.34 2.98 3 4 C2.01 3.67 1.02 3.34 0 3 C0 2.01 0 1.02 0 0 Z " fill="#F3F5F5" transform="translate(258,308)"/>
<path d="M0 0 C1.485 0.99 1.485 0.99 3 2 C3 2.66 3 3.32 3 4 C1.68 3.67 0.36 3.34 -1 3 C-0.67 2.01 -0.34 1.02 0 0 Z " fill="#E9EBEA" transform="translate(232,291)"/>
<path d="M0 0 C0.99 0 1.98 0 3 0 C3.33 1.32 3.66 2.64 4 4 C2.68 3.34 1.36 2.68 0 2 C0 1.34 0 0.68 0 0 Z " fill="#E7E8E7" transform="translate(225,286)"/>
<path d="M0 0 C0.66 0.33 1.32 0.66 2 1 C1.67 1.99 1.34 2.98 1 4 C0.01 4 -0.98 4 -2 4 C-1.34 2.68 -0.68 1.36 0 0 Z " fill="#ECEFED" transform="translate(363,285)"/>
<path d="M0 0 C0.99 0.33 1.98 0.66 3 1 C3 1.99 3 2.98 3 4 C2.01 4 1.02 4 0 4 C0 2.68 0 1.36 0 0 Z " fill="#F2F3F2" transform="translate(200,237)"/>
<path d="M0 0 C0.66 0 1.32 0 2 0 C2.33 1.32 2.66 2.64 3 4 C2.01 4.33 1.02 4.66 0 5 C0 3.35 0 1.7 0 0 Z " fill="#EDF1EF" transform="translate(199,229)"/>
<path d="M0 0 C0.99 0.33 1.98 0.66 3 1 C3 1.99 3 2.98 3 4 C2.01 4 1.02 4 0 4 C0 2.68 0 1.36 0 0 Z " fill="#EAEDEC" transform="translate(381,182)"/>
<path d="M0 0 C0.99 0 1.98 0 3 0 C3.33 0.99 3.66 1.98 4 3 C3.01 3.33 2.02 3.66 1 4 C0.67 2.68 0.34 1.36 0 0 Z " fill="#EBEFEF" transform="translate(377,175)"/>
<path d="M0 0 C0.99 0 1.98 0 3 0 C3.33 0.99 3.66 1.98 4 3 C3.01 3.33 2.02 3.66 1 4 C0.67 2.68 0.34 1.36 0 0 Z " fill="#ECEEEE" transform="translate(373,168)"/>
<path d="M0 0 C0.99 0.33 1.98 0.66 3 1 C2.01 2.485 2.01 2.485 1 4 C0.34 4 -0.32 4 -1 4 C-0.67 2.68 -0.34 1.36 0 0 Z " fill="#EDF0ED" transform="translate(218,162)"/>
<path d="M0 0 C0.99 0.33 1.98 0.66 3 1 C2.01 2.485 2.01 2.485 1 4 C0.34 4 -0.32 4 -1 4 C-0.67 2.68 -0.34 1.36 0 0 Z " fill="#EEF0EE" transform="translate(229,150)"/>
<path d="M0 0 C0.99 0.33 1.98 0.66 3 1 C2.01 2.485 2.01 2.485 1 4 C0.34 4 -0.32 4 -1 4 C-0.67 2.68 -0.34 1.36 0 0 Z " fill="#EFF1F0" transform="translate(248,136)"/>
<path d="M0 0 C1.32 0 2.64 0 4 0 C4 0.66 4 1.32 4 2 C2.68 2.33 1.36 2.66 0 3 C0 2.01 0 1.02 0 0 Z " fill="#E7EDED" transform="translate(313,313)"/>
<path d="M0 0 C1.32 0 2.64 0 4 0 C4 0.99 4 1.98 4 3 C2.68 2.67 1.36 2.34 0 2 C0 1.34 0 0.68 0 0 Z " fill="#F0F5F5" transform="translate(273,313)"/>
<path d="M0 0 C2.0625 0.4375 2.0625 0.4375 4 1 C3.67 1.66 3.34 2.32 3 3 C1.68 2.34 0.36 1.68 -1 1 C-0.67 0.67 -0.34 0.34 0 0 Z " fill="#F4F7F7" transform="translate(266,311)"/>
<path d="M0 0 C1.32 0 2.64 0 4 0 C4 0.66 4 1.32 4 2 C2.68 2.33 1.36 2.66 0 3 C0 2.01 0 1.02 0 0 Z " fill="#E7EAEA" transform="translate(321,311)"/>
<path d="M0 0 C0.99 0 1.98 0 3 0 C2.67 0.99 2.34 1.98 2 3 C1.01 3 0.02 3 -1 3 C-0.67 2.01 -0.34 1.02 0 0 Z " fill="#EFF2F1" transform="translate(329,308)"/>
<path d="M0 0 C1.32 0.33 2.64 0.66 4 1 C4 1.66 4 2.32 4 3 C2.68 2.67 1.36 2.34 0 2 C0 1.34 0 0.68 0 0 Z " fill="#EDF0EF" transform="translate(251,305)"/>
<path d="M0 0 C1.32 0 2.64 0 4 0 C4 0.66 4 1.32 4 2 C2.68 2.33 1.36 2.66 0 3 C0 2.01 0 1.02 0 0 Z " fill="#F1F3F3" transform="translate(336,305)"/>
<path d="M0 0 C1.32 0.33 2.64 0.66 4 1 C3.67 1.99 3.34 2.98 3 4 C2.01 3.34 1.02 2.68 0 2 C0 1.34 0 0.68 0 0 Z " fill="#E3E4E3" transform="translate(244,301)"/>
<path d="M0 0 C-0.66 1.32 -1.32 2.64 -2 4 C-2.66 3.67 -3.32 3.34 -4 3 C-4 2.34 -4 1.68 -4 1 C-2 0 -2 0 0 0 Z " fill="#E2E3E3" transform="translate(353,296)"/>
<path d="M0 0 C0.66 0 1.32 0 2 0 C2 0.99 2 1.98 2 3 C1.01 3.33 0.02 3.66 -1 4 C-1 1 -1 1 0 0 Z " fill="#E3E4E4" transform="translate(357,291)"/>
<path d="M0 0 C0.99 0 1.98 0 3 0 C3.33 0.99 3.66 1.98 4 3 C3.01 3 2.02 3 1 3 C0.67 2.01 0.34 1.02 0 0 Z " fill="#EAECEB" transform="translate(215,274)"/>
<path d="M0 0 C0.66 0.66 1.32 1.32 2 2 C1.67 2.66 1.34 3.32 1 4 C0.01 4 -0.98 4 -2 4 C-1.34 2.68 -0.68 1.36 0 0 Z " fill="#E2E4E3" transform="translate(373,273)"/>
<path d="M0 0 C0.66 0.33 1.32 0.66 2 1 C1.67 1.99 1.34 2.98 1 4 C0.01 3.67 -0.98 3.34 -2 3 C-1.34 2.01 -0.68 1.02 0 0 Z " fill="#E3E5E4" transform="translate(377,266)"/>
<path d="M0 0 C0.99 0.33 1.98 0.66 3 1 C3 1.99 3 2.98 3 4 C2.01 3.67 1.02 3.34 0 3 C0 2.01 0 1.02 0 0 Z " fill="#F0F2F1" transform="translate(211,267)"/>
<path d="M0 0 C0.99 0.33 1.98 0.66 3 1 C3.33 1.99 3.66 2.98 4 4 C3.01 4 2.02 4 1 4 C0.67 2.68 0.34 1.36 0 0 Z " fill="#EBECEB" transform="translate(207,260)"/>
<path d="M0 0 C0.99 0 1.98 0 3 0 C2.67 1.32 2.34 2.64 2 4 C1.34 4 0.68 4 0 4 C0 2.68 0 1.36 0 0 Z " fill="#E8E9E9" transform="translate(383,252)"/>
<path d="M0 0 C0.66 0 1.32 0 2 0 C2.33 1.32 2.66 2.64 3 4 C2.01 4 1.02 4 0 4 C0 2.68 0 1.36 0 0 Z " fill="#E7EAE9" transform="translate(202,245)"/>
<path d="M0 0 C0.66 0.33 1.32 0.66 2 1 C1.67 2.32 1.34 3.64 1 5 C0.34 4.67 -0.32 4.34 -1 4 C-0.67 2.68 -0.34 1.36 0 0 Z " fill="#EFF1F0" transform="translate(386,244)"/>
<path d="M0 0 C0.99 0 1.98 0 3 0 C2.67 1.32 2.34 2.64 2 4 C1.34 4 0.68 4 0 4 C0 2.68 0 1.36 0 0 Z " fill="#F0F2F1" transform="translate(387,237)"/>
<path d="M0 0 C0.99 0 1.98 0 3 0 C3 1.32 3 2.64 3 4 C2.34 4 1.68 4 1 4 C0.67 2.68 0.34 1.36 0 0 Z " fill="#EBEDEC" transform="translate(388,213)"/>
<path d="M0 0 C0.66 0 1.32 0 2 0 C2 1.32 2 2.64 2 4 C1.01 4 0.02 4 -1 4 C-0.67 2.68 -0.34 1.36 0 0 Z " fill="#EBEDEB" transform="translate(200,206)"/>
<path d="M0 0 C0.99 0 1.98 0 3 0 C3 1.32 3 2.64 3 4 C2.34 4 1.68 4 1 4 C0.67 2.68 0.34 1.36 0 0 Z " fill="#E7E9E9" transform="translate(387,205)"/>
<path d="M0 0 C0.66 0 1.32 0 2 0 C2.33 1.32 2.66 2.64 3 4 C2.01 4 1.02 4 0 4 C0 2.68 0 1.36 0 0 Z " fill="#DFE0E0" transform="translate(386,197)"/>
<path d="M0 0 C0.66 0 1.32 0 2 0 C2.33 1.32 2.66 2.64 3 4 C2.01 4 1.02 4 0 4 C0 2.68 0 1.36 0 0 Z " fill="#ECEEED" transform="translate(384,189)"/>
<path d="M0 0 C0.66 0 1.32 0 2 0 C1.67 1.32 1.34 2.64 1 4 C0.01 3.67 -0.98 3.34 -2 3 C-1.34 2.01 -0.68 1.02 0 0 Z " fill="#EBEDED" transform="translate(214,169)"/>
<path d="M0 0 C0.66 0 1.32 0 2 0 C2.33 1.32 2.66 2.64 3 4 C1.68 3.34 0.36 2.68 -1 2 C-0.67 1.34 -0.34 0.68 0 0 Z " fill="#E5E9E8" transform="translate(369,161)"/>
<path d="M0 0 C1.32 0.66 2.64 1.32 4 2 C4 2.33 4 2.66 4 3 C2.35 3 0.7 3 -1 3 C-0.67 2.01 -0.34 1.02 0 0 Z " fill="#F0F1F1" transform="translate(358,150)"/>
<path d="M0 0 C1.32 0.33 2.64 0.66 4 1 C4 1.66 4 2.32 4 3 C2.68 2.67 1.36 2.34 0 2 C0 1.34 0 0.68 0 0 Z " fill="#F3F3F2" transform="translate(345,140)"/>
<path d="M0 0 C0.99 0 1.98 0 3 0 C2.67 0.99 2.34 1.98 2 3 C1.01 3 0.02 3 -1 3 C-0.67 2.01 -0.34 1.02 0 0 Z " fill="#F2F4F3" transform="translate(262,130)"/>
<path d="M0 0 C1.32 0.33 2.64 0.66 4 1 C4 1.66 4 2.32 4 3 C2.68 3 1.36 3 0 3 C0 2.01 0 1.02 0 0 Z " fill="#ECF3F0" transform="translate(316,127)"/>
<path d="M0 0 C1.32 0 2.64 0 4 0 C4 0.99 4 1.98 4 3 C2.68 2.67 1.36 2.34 0 2 C0 1.34 0 0.68 0 0 Z " fill="#EFF4F4" transform="translate(308,126)"/>
<path d="M0 0 C1.65 0 3.3 0 5 0 C5 0.66 5 1.32 5 2 C3.35 2 1.7 2 0 2 C0 1.34 0 0.68 0 0 Z " fill="#E8E9E9" transform="translate(292,125)"/>
<path d="M0 0 C0.33 0.99 0.66 1.98 1 3 C-0.32 3 -1.64 3 -3 3 C-2.01 2.01 -1.02 1.02 0 0 Z " fill="#E2E5E4" transform="translate(345,300)"/>
<path d="M0 0 C1.32 0.33 2.64 0.66 4 1 C4 1.66 4 2.32 4 3 C2.68 2.67 1.36 2.34 0 2 C0 1.34 0 0.68 0 0 Z " fill="#E5E8E7" transform="translate(237,297)"/>
<path d="M0 0 C0.99 0 1.98 0 3 0 C2.34 1.32 1.68 2.64 1 4 C0.67 2.68 0.34 1.36 0 0 Z " fill="#E5EAE9" transform="translate(367,280)"/>
<path d="M0 0 C0.66 0.66 1.32 1.32 2 2 C1.67 2.66 1.34 3.32 1 4 C0.01 3.67 -0.98 3.34 -2 3 C-1.34 2.01 -0.68 1.02 0 0 Z " fill="#ECEEED" transform="translate(381,259)"/>
<path d="M0 0 C0.99 0.33 1.98 0.66 3 1 C3 1.99 3 2.98 3 4 C2.34 4 1.68 4 1 4 C0.67 2.68 0.34 1.36 0 0 Z " fill="#EDEFEE" transform="translate(204,253)"/>
<path d="M0 0 C0.99 0 1.98 0 3 0 C3 1.32 3 2.64 3 4 C2.34 4 1.68 4 1 4 C0.67 2.68 0.34 1.36 0 0 Z " fill="#EEEFEF" transform="translate(198,222)"/>
<path d="M0 0 C1.485 0.99 1.485 0.99 3 2 C3 2.66 3 3.32 3 4 C1.68 3.34 0.36 2.68 -1 2 C-0.67 1.34 -0.34 0.68 0 0 Z " fill="#EBEEEC" transform="translate(364,155)"/>
<path d="M0 0 C1.32 0 2.64 0 4 0 C4 0.66 4 1.32 4 2 C2.68 2.33 1.36 2.66 0 3 C0 2.01 0 1.02 0 0 Z " fill="#EEF3F1" transform="translate(269,128)"/>
<path d="M0 0 C1.32 0 2.64 0 4 0 C3.67 0.99 3.34 1.98 3 3 C2.01 2.67 1.02 2.34 0 2 C0 1.34 0 0.68 0 0 Z " fill="#F3F6F6" transform="translate(300,125)"/>
<path d="M0 0 C0.66 0 1.32 0 2 0 C2 1.32 2 2.64 2 4 C1.34 4 0.68 4 0 4 C0 2.68 0 1.36 0 0 Z " fill="#E5E6E6" transform="translate(389,221)"/>
<path d="M0 0 C0.66 0 1.32 0 2 0 C2 1.32 2 2.64 2 4 C1.34 4 0.68 4 0 4 C0 2.68 0 1.36 0 0 Z " fill="#E7E9E8" transform="translate(199,214)"/>
<path d="M0 0 C0.66 0 1.32 0 2 0 C2 1.32 2 2.64 2 4 C1.34 4 0.68 4 0 4 C0 2.68 0 1.36 0 0 Z " fill="#F0F1F1" transform="translate(201,198)"/>
<path d="M0 0 C1.98 0.99 1.98 0.99 4 2 C2.68 2 1.36 2 0 2 C0 1.34 0 0.68 0 0 Z " fill="#EBEEED" transform="translate(352,145)"/>
<path d="M0 0 C0.99 0.33 1.98 0.66 3 1 C3 1.66 3 2.32 3 3 C1.68 2.34 0.36 1.68 -1 1 C-0.67 0.67 -0.34 0.34 0 0 Z " fill="#F4F5F6" transform="translate(339,136)"/>
<path d="M0 0 C0.66 1.32 1.32 2.64 2 4 C1.01 3.67 0.02 3.34 -1 3 C-0.67 2.01 -0.34 1.02 0 0 Z " fill="#FFFFFF" transform="translate(265,142)"/>
<path d="M0 0 C0.99 0 1.98 0 3 0 C3 0.66 3 1.32 3 2 C2.01 2.33 1.02 2.66 0 3 C0 2.01 0 1.02 0 0 Z " fill="#F3F4F4" transform="translate(285,125)"/>
<path d="M0 0 C0.33 0 0.66 0 1 0 C1 1.65 1 3.3 1 5 C0.34 3.68 -0.32 2.36 -1 1 C-0.67 0.67 -0.34 0.34 0 0 Z " fill="#FFFFFF" transform="translate(258,158)"/>
<path d="M0 0 C1.98 0.99 1.98 0.99 4 2 C3.01 2 2.02 2 1 2 C0.67 1.34 0.34 0.68 0 0 Z " fill="#F4FFFF" transform="translate(352,111)"/>
<path d="M0 0 C0 0.99 0 1.98 0 3 C-0.66 2.34 -1.32 1.68 -2 1 C-1.34 0.67 -0.68 0.34 0 0 Z " fill="#FFFFFF" transform="translate(235,111)"/>
<path d="M0 0 C0.99 0.33 1.98 0.66 3 1 C2.01 1.33 1.02 1.66 0 2 C0 1.34 0 0.68 0 0 Z " fill="#FFFFFF" transform="translate(353,183)"/>
<path d="M0 0 C0 3 0 3 0 3 Z " fill="#FFFFFF" transform="translate(316,148)"/>
<path d="M0 0 C1 4 1 4 1 4 Z " fill="#FFFFFF" transform="translate(296,137)"/>
<path d="M0 0 C3 1 3 1 3 1 Z " fill="#FFFFFF" transform="translate(376,217)"/>
<path d="M0 0 C0.99 0.495 0.99 0.495 2 1 C1.01 1.495 1.01 1.495 0 2 C0 1.34 0 0.68 0 0 Z " fill="#FFFFFF" transform="translate(296,148)"/>
<path d="M0 0 C3 1 3 1 3 1 Z " fill="#FFFFFF" transform="translate(335,143)"/>
<path d="M0 0 C0.33 0.66 0.66 1.32 1 2 C0.34 1.67 -0.32 1.34 -1 1 C-0.67 0.67 -0.34 0.34 0 0 Z " fill="#FFFFFF" transform="translate(209,131)"/>
<path d="M0 0 C0.33 0.66 0.66 1.32 1 2 C0.34 1.67 -0.32 1.34 -1 1 C-0.67 0.67 -0.34 0.34 0 0 Z " fill="#E9E9E9" transform="translate(203,124)"/>
<path d="M0 0 C2 1 2 1 2 1 Z " fill="#FFFFFF" transform="translate(319,317)"/>
<path d="" fill="#FFFFFF" transform="translate(0,0)"/>
<path d="M0 0 C2 1 2 1 2 1 Z " fill="#FFFFFF" transform="translate(356,182)"/>
<path d="M0 0 C2 1 2 1 2 1 Z " fill="#FFFFFF" transform="translate(358,181)"/>
<path d="" fill="#DFFFFF" transform="translate(0,0)"/>
<path d="" fill="#FFFFFF" transform="translate(0,0)"/>
<path d="M0 0 C2 1 2 1 2 1 Z " fill="#FFFFFF" transform="translate(361,116)"/>
<path d="M0 0 C2 1 2 1 2 1 Z " fill="#FFFFFF" transform="translate(332,103)"/>
<path d="" fill="#FFFFFF" transform="translate(0,0)"/>
<path d="" fill="#FFFFFF" transform="translate(0,0)"/>
<path d="" fill="#FFFFFF" transform="translate(0,0)"/>
<path d="" fill="#FFFFFF" transform="translate(0,0)"/>
<path d="" fill="#CCFFCC" transform="translate(0,0)"/>
<path d="" fill="#FFFFFF" transform="translate(0,0)"/>
<path d="" fill="#FFFFFF" transform="translate(0,0)"/>
<path d="" fill="#FFFFFF" transform="translate(0,0)"/>
<path d="" fill="#FFFFFF" transform="translate(0,0)"/>
<path d="" fill="#FFFFFF" transform="translate(0,0)"/>
<path d="" fill="#FFFFFF" transform="translate(0,0)"/>
<path d="" fill="#FFFFFF" transform="translate(0,0)"/>
<path d="" fill="#FFFFFF" transform="translate(0,0)"/>
<path d="" fill="#FFFFFF" transform="translate(0,0)"/>
<path d="" fill="#FFFFFF" transform="translate(0,0)"/>
<path d="" fill="#FFFFFF" transform="translate(0,0)"/>
<path d="" fill="#FFFFFF" transform="translate(0,0)"/>
<path d="" fill="#FFFFFF" transform="translate(0,0)"/>
<path d="" fill="#FFFFFF" transform="translate(0,0)"/>
<path d="" fill="#FFFFFF" transform="translate(0,0)"/>
<path d="" fill="#FFFFFF" transform="translate(0,0)"/>
<path d="" fill="#FFFFFF" transform="translate(0,0)"/>
<path d="" fill="#FFFFFF" transform="translate(0,0)"/>
<path d="" fill="#FFFFFF" transform="translate(0,0)"/>
<path d="" fill="#FFFFFF" transform="translate(0,0)"/>
<path d="" fill="#FFFFFF" transform="translate(0,0)"/>
<path d="" fill="#FFFFFF" transform="translate(0,0)"/>
<path d="" fill="#FFFFFF" transform="translate(0,0)"/>
<path d="" fill="#FFFFFF" transform="translate(0,0)"/>
<path d="" fill="#FFFFFF" transform="translate(0,0)"/>
<path d="" fill="#FFFFFF" transform="translate(0,0)"/>
<path d="" fill="#FFFFFF" transform="translate(0,0)"/>
</svg>
